<?xml version="1.0" encoding="UTF-8"?>
<svg width="500" height="400" viewBox="0 0 500 400" fill="none" xmlns="http://www.w3.org/2000/svg">
  <!-- Background Shape -->
  <path d="M50 200C50 111.634 121.634 40 210 40H290C378.366 40 450 111.634 450 200C450 288.366 378.366 360 290 360H210C121.634 360 50 288.366 50 200Z" fill="#DB511F" fill-opacity="0.05"/>
  
  <!-- Dashboard Elements -->
  <rect x="100" y="100" width="300" height="200" rx="8" stroke="#DB511F" stroke-width="2"/>
  
  <!-- Graph -->
  <path d="M150 250L200 200L250 220L300 180L350 150" stroke="#DB511F" stroke-width="2"/>
  <circle cx="200" cy="200" r="4" fill="#DB511F"/>
  <circle cx="250" cy="220" r="4" fill="#DB511F"/>
  <circle cx="300" cy="180" r="4" fill="#DB511F"/>
  
  <!-- Stats Boxes -->
  <rect x="120" y="120" width="80" height="40" rx="4" stroke="#DB511F" stroke-width="2"/>
  <rect x="210" y="120" width="80" height="40" rx="4" stroke="#DB511F" stroke-width="2"/>
  <rect x="300" y="120" width="80" height="40" rx="4" stroke="#DB511F" stroke-width="2"/>
  
  <!-- Decorative Elements -->
  <circle cx="150" cy="80" r="5" fill="#DB511F"/>
  <circle cx="350" cy="320" r="5" fill="#DB511F"/>
  <path d="M80 180L100 200L80 220" stroke="#DB511F" stroke-width="2"/>
  <path d="M420 180L400 200L420 220" stroke="#DB511F" stroke-width="2"/>
</svg>
